<svg xmlns="http://www.w3.org/2000/svg" xmlns:xlink="http://www.w3.org/1999/xlink" viewBox="0 0 30 30" fill="#C4314F">
  <path d="M9.4414062 3C3.9904063 3.094 3.4333438 6.8738437 4.5273438 11.214844C4.3153438 11.336844 3.9666875 11.724109 4.0546875 12.412109C4.2186875 13.695109 4.7749062 14.019875 5.1289062 14.046875C5.2639062 15.244875 6.55 16.777 7 17L7 19C6 22 0 19 0 27L12 27C12 23.452 13.989438 21.923922 15.648438 21.044922C14.090438 20.498922 12.477 20.431 12 19L12 17C12.45 16.777 13.735094 15.245828 13.871094 14.048828C13.951094 13.765828 14.013672 12.753391 14.013672 12.525391C14.013672 11.276391 13.995344 8.6948281 14.777344 6.6738281C14.504344 5.3158281 13.790719 4.1705312 12.261719 4.0195312C11.852719 3.3425313 10.804406 3 9.4414062 3 z M 22.123047 4C20.999047 4 20.130859 5 20.130859 5C13.688859 5 17.265047 15.953344 15.373047 17.527344C15.373047 17.527344 16.379 19.017578 20 19.017578L20 20.292969C19 22.999969 14 22 14 27L30 27C30 22 25 22.999969 24 20.292969L24 19.005859C27.639 19.005859 28.482422 17.564453 28.482422 17.564453C26.445422 15.892453 29.999047 4 22.123047 4 z" fill="#C4314F" />
</svg>